C:\GBW_MyPrograms\KinderuniversiteitApp\Resultaten\smurf_test_midnight\model1_v1.mot
version=1
nRows=7
nColumns=31
inDegrees=yes
endheader
                time	         pelvis_tilt	           pelvis_tx	           pelvis_ty	       hip_flexion_r	        knee_angle_r	       ankle_angle_r	       hip_flexion_l	        knee_angle_l	       ankle_angle_l	    lumbar_extension	          arm_flex_r	          arm_flex_l	hamstrings_r/activation	bifemsh_r/activation	glut_max_r/activation	iliopsoas_r/activation	rect_fem_r/activation	  vasti_r/activation	gastroc_r/activation	 soleus_r/activation	tib_ant_r/activation	hamstrings_l/activation	bifemsh_l/activation	glut_max_l/activation	iliopsoas_l/activation	rect_fem_l/activation	  vasti_l/activation	gastroc_l/activation	 soleus_l/activation	tib_ant_l/activation	
          0.41496795	        -10.22110424	          0.56381200	          1.09900463	         13.98499619	        -30.40538916	          0.34523121	          0.33443431	         12.02592527	         -3.71556518	         -1.01654037	        -53.86642313	        -53.86642245	          0.62179209	          0.68641137	          0.40073818	          0.38154908	          0.17286335	          0.11160216	          0.56045955	          0.64173110	          0.14246715	          0.16292245	          0.39667359	          0.21120213	          0.61906798	          0.41443200	          0.47831025	          0.16445560	          0.58768527	          0.28887284	
          0.41773440	        -10.57845177	          0.56437092	          1.08951691	         16.11632840	        -32.38085973	          2.74265353	          9.23547549	        -27.34742361	          2.09274793	         -1.19797389	        -53.78712702	        -53.78712618	          0.64748270	          0.67173354	          0.45790974	          0.34029214	          0.17696329	          0.11286427	          0.57815926	          0.66595849	          0.09335879	          0.13927808	          0.35788681	          0.25376070	          0.57966905	          0.48132822	          0.55226972	          0.25032944	          0.62890386	          0.22939613	
          0.42050085	        -10.64683726	          0.56485133	          1.08527145	         16.52745249	        -33.46189985	          3.39856516	         14.36500143	        -32.97164103	          3.28315276	         -1.29685582	        -53.57866591	        -53.57866500	          0.66970179	          0.65393789	          0.50568639	          0.30233474	          0.15771566	          0.14144188	          0.55536725	          0.67244549	          0.06023638	          0.12252674	          0.32062507	          0.31582859	          0.53739232	          0.53171029	          0.56556981	          0.32915660	          0.65498165	          0.18377968	
          0.42326731	        -10.66575078	          0.56528688	          1.08536991	         16.96940288	        -33.79630631	          3.41232261	         15.84742930	        -33.67223146	          3.55124093	         -1.38885627	        -53.36126014	        -53.36125909	          0.68886794	          0.63899676	          0.54554986	          0.26768932	          0.14289202	          0.14082606	          0.51917174	          0.63057118	          0.05677198	          0.11458783	          0.29176580	          0.30329093	          0.51245685	          0.56302764	          0.52807040	          0.39621875	          0.67423080	          0.14519750	
          0.42603376	        -10.67598648	          0.56569382	          1.08592200	         17.40177573	        -34.05324198	          3.36113493	         16.49279900	        -33.85276654	          3.67624044	         -1.48296843	        -53.16942263	        -53.16942140	          0.70484673	          0.62342814	          0.57864523	          0.23613607	          0.13103870	          0.13895495	          0.47817770	          0.57827304	          0.05822335	          0.11408621	          0.27574558	          0.27663863	          0.52569906	          0.58651307	          0.47976139	          0.45332649	          0.69055718	          0.11112435	
          0.42880021	        -10.68625485	          0.56608352	          1.08642927	         17.82408474	        -34.31546017	          3.27500265	         16.72723467	        -33.79391012	          3.70632353	         -1.57312946	        -52.96857693	        -52.96857564	          0.71791431	          0.60596414	          0.60684287	          0.20649590	          0.12279308	          0.13985835	          0.43506093	          0.52488304	          0.06163096	          0.11485435	          0.27918415	          0.24496521	          0.54552675	          0.60542388	          0.43050197	          0.50174151	          0.70440035	          0.08099872	
          0.43156666	        -10.69774148	          0.56646372	          1.08691394	         18.17019820	        -34.54972109	          3.15541475	         16.83539812	        -33.67676725	          3.68205210	         -1.65847239	        -52.76021935	        -52.76021801	          0.72790489	          0.58654104	          0.63063822	          0.17908419	          0.11687527	          0.14812654	          0.39112654	          0.47185858	          0.06966693	          0.11409551	          0.31436355	          0.21125608	          0.56569463	          0.62178504	          0.38235031	          0.54231714	          0.71654516	          0.05718947	
